<?xml version="1.0" standalone="no"?>
<!DOCTYPE svg PUBLIC "-//W3C//DTD SVG 20010904//EN"
 "http://www.w3.org/TR/2001/REC-SVG-20010904/DTD/svg10.dtd">
<svg version="1.0" xmlns="http://www.w3.org/2000/svg"
 width="170.000000pt" height="170.000000pt" viewBox="0 0 170.000000 170.000000"
 preserveAspectRatio="xMidYMid meet">
<metadata>
Created by potrace 1.14, written by Peter Selinger 2001-2017
</metadata>
<g transform="translate(0.000000,170.000000) scale(0.100000,-0.100000)"
fill="#000000" stroke="none">
<path d="M686 1684 c-127 -28 -272 -93 -356 -161 -153 -123 -270 -306 -306
-474 -2 -13 -9 -44 -14 -69 -15 -73 -4 -265 20 -348 67 -236 212 -419 420
-530 130 -70 240 -96 395 -97 126 0 190 10 285 44 211 78 366 210 468 401 71
133 97 240 97 400 0 149 -21 246 -75 359 -111 228 -296 386 -537 457 -111 32
-291 41 -397 18z m717 -619 c26 -7 27 -9 27 -81 l0 -74 -27 11 c-74 28 -173
16 -194 -23 -17 -32 -2 -103 24 -117 33 -17 95 -19 152 -4 28 7 50 13 50 13 0
0 -1 -27 -2 -60 -2 -82 -5 -87 -55 -96 -178 -31 -311 29 -339 156 -9 41 -6
111 7 144 5 13 -2 16 -45 16 -28 0 -51 -3 -51 -7 -1 -5 -2 -75 -3 -158 l-2
-150 -80 0 -80 0 0 158 0 157 -48 0 c-48 0 -49 0 -42 -28 19 -91 0 -183 -48
-230 -47 -45 -101 -58 -250 -61 l-127 -2 -1 68 c-1 99 -1 313 0 346 l1 29 147
-4 c157 -4 197 -14 235 -62 17 -21 18 -20 18 22 l0 42 195 0 195 0 0 -40 c0
-22 5 -40 10 -40 6 0 10 4 10 9 0 18 57 51 111 65 55 14 161 14 212 1z"/>
<path d="M443 932 c-6 -4 -10 -43 -9 -92 l1 -85 30 3 c48 6 69 33 68 92 0 31
-5 57 -14 65 -16 16 -61 26 -76 17z"/>
</g>
</svg>
